# xmcd CD database file
#
# Track frame offsets:
#	150
#	17403
#	37437
#	49365
#	65791
#	79405
#	95632
#	115032
#	136257
#	153033
#	168350
#
# Disc length: 2478 seconds
#
# Revision: 7
# Processed by: cddbd v1.5.2PL0 Copyright (c) Steve Scherf et al.
# Submitted via: CDex 2.12
#
DISCID=9309ac0b
DTITLE=George Strait - Here For A Good Time
DYEAR=2011
DGENRE=Country
TTITLE0=Love's Gonna Make It Alright
TTITLE1=Drinkin' Man
TTITLE2=Shame On Me
TTITLE3=Poison
TTITLE4=Here For A Good Time
TTITLE5=House Across The Bay
TTITLE6=Lone Star Blues
TTITLE7=A Showman's Life
TTITLE8=Three Nails And A Cross
TTITLE9=Blue Marlin Blues
TTITLE10=I'll Always Remember You
EXTD=YEAR: 2011
EXTT0=
EXTT1=
EXTT2=
EXTT3=
EXTT4=
EXTT5=
EXTT6=
EXTT7=
EXTT8=
EXTT9=
EXTT10=
PLAYORDER=
